<svg width="485" height="201" viewBox="0 0 485 201" fill="none" xmlns="http://www.w3.org/2000/svg">
<rect x="0.386597" y="0.624756" width="483.635" height="200" rx="5" fill="#1E4681"/>
<path d="M33.5092 46.1368C32.378 46.1368 31.3404 45.9415 30.3964 45.5509C29.4524 45.1603 28.6996 44.5865 28.1381 43.8297C27.5847 43.0729 27.3202 42.137 27.3446 41.0221L27.369 40.9489H29.6639C29.6639 41.8766 30.0057 42.6619 30.6893 43.3048C31.3729 43.9396 32.3291 44.257 33.558 44.257C34.7461 44.257 35.7268 43.9559 36.4999 43.3536C37.273 42.7433 37.6595 41.8888 37.6595 40.7902C37.6595 39.8136 37.3259 39.069 36.6586 38.5563C35.9913 38.0354 35.0066 37.775 33.7045 37.775H31.7025V35.8707H33.7045C34.9577 35.8707 35.8855 35.6062 36.4877 35.0773C37.0899 34.5483 37.391 33.8281 37.391 32.9166C37.391 31.9726 37.0533 31.2076 36.3778 30.6217C35.7105 30.0358 34.7136 29.7428 33.3871 29.7428C32.5326 29.7428 31.8124 29.8689 31.2264 30.1212C30.6405 30.3654 30.1644 30.6746 29.7982 31.049L29.3344 33.5514H27.6498V30.402C28.1543 29.7509 28.9234 29.165 29.9569 28.6442C30.9904 28.1152 32.2111 27.8507 33.619 27.8507C35.507 27.8507 37.0085 28.278 38.1234 29.1324C39.2383 29.9788 39.7958 31.1303 39.7958 32.587C39.7958 33.5717 39.5394 34.4181 39.0267 35.1261C38.514 35.826 37.8101 36.3712 36.9149 36.7618C37.9322 37.1036 38.7094 37.6285 39.2465 38.3365C39.7917 39.0446 40.0643 39.9113 40.0643 40.9366C40.0643 42.019 39.7876 42.9508 39.2343 43.7321C38.689 44.5052 37.924 45.0992 36.9393 45.5143C35.9546 45.9293 34.8112 46.1368 33.5092 46.1368ZM41.871 50.9586V49.4083L43.7386 49.0665V34.5646L41.7489 34.2228V32.6725H45.8016L46.0214 34.2838C46.9247 33.0468 48.1901 32.4283 49.8177 32.4283C50.9082 32.4283 51.84 32.7254 52.6132 33.3195C53.3863 33.9054 53.9763 34.7314 54.3832 35.7975C54.7901 36.8554 54.9935 38.0965 54.9935 39.5206V39.777C54.9935 41.0465 54.786 42.1573 54.371 43.1095C53.9641 44.0616 53.3781 44.8063 52.6132 45.3434C51.8482 45.8724 50.9286 46.1368 49.8544 46.1368C48.2512 46.1368 47.0142 45.5957 46.1434 44.5133V49.0665L48.243 49.4083V50.9586H41.871ZM49.1097 44.257C50.2491 44.257 51.1117 43.8419 51.6976 43.0118C52.2836 42.1818 52.5765 41.1035 52.5765 39.777V39.5206C52.5765 38.0151 52.2836 36.7822 51.6976 35.8219C51.1117 34.8616 50.2409 34.3815 49.0853 34.3815C48.4017 34.3815 47.8158 34.5361 47.3275 34.8453C46.8392 35.1546 46.4445 35.5778 46.1434 36.1149V42.548C46.4445 43.0932 46.8352 43.5164 47.3153 43.8175C47.8036 44.1105 48.4017 44.257 49.1097 44.257ZM57.6547 45.8805V44.3424L59.6444 44.0006V34.5646L57.6547 34.2228V32.6725H64.0267V34.2228L62.037 34.5646V42.0231L62.1102 42.0475L67.933 32.6725H72.3275V34.2228L70.3378 34.5646V44.0006L72.3275 44.3424V45.8805H65.9432V44.3424L67.933 44.0006V36.5299L67.8597 36.5055L62.037 45.8805H57.6547ZM77.4911 45.8805V44.3424L79.4808 44.0006V34.5402H76.6976L76.5145 36.6031H74.4637V32.6725H86.9637V36.6031H84.9008L84.7177 34.5402H81.8856V44.0006L83.8754 44.3424V45.8805H77.4911ZM93.934 46.1368C92.7133 46.1368 91.6512 45.8601 90.7479 45.3068C89.8446 44.7452 89.1447 43.9681 88.6483 42.9752C88.16 41.9824 87.9159 40.8349 87.9159 39.5328V38.9957C87.9159 37.7425 88.1722 36.6235 88.6849 35.6388C89.2058 34.646 89.8934 33.8647 90.7479 33.295C91.6106 32.7172 92.5505 32.4283 93.5677 32.4283C95.3418 32.4283 96.6846 32.9655 97.5961 34.0397C98.5157 35.1139 98.9755 36.5462 98.9755 38.3365V39.838H90.4061L90.3695 39.899C90.3939 41.1686 90.7154 42.2143 91.3339 43.0363C91.9524 43.8501 92.8191 44.257 93.934 44.257C94.7478 44.257 95.4598 44.143 96.0702 43.9152C96.6887 43.6792 97.2217 43.3577 97.6693 42.9508L98.6093 44.5133C98.1372 44.969 97.5106 45.3556 96.7294 45.673C95.9563 45.9822 95.0245 46.1368 93.934 46.1368ZM90.4794 37.9581H96.5707V37.6407C96.5707 36.6967 96.3184 35.9073 95.8138 35.2726C95.3093 34.6378 94.5606 34.3204 93.5677 34.3204C92.7621 34.3204 92.0744 34.6622 91.5048 35.3458C90.9351 36.0213 90.5852 36.8717 90.455 37.8971L90.4794 37.9581ZM100.794 45.8805L100.831 43.8297L101.331 43.8175C102.194 43.8175 102.792 43.3984 103.126 42.5602C103.468 41.722 103.639 40.3059 103.639 38.3121V34.5646L101.649 34.2228V32.6725H114.918V34.2228L112.928 34.5646V44.0006L114.918 44.3424V45.8805H108.534V44.3424L110.523 44.0006V34.5768H106.043V38.3121C106.043 40.9163 105.697 42.8287 105.006 44.0494C104.322 45.2701 103.146 45.8805 101.478 45.8805H100.794ZM124.867 37.2135C126.429 37.2135 127.646 37.6123 128.516 38.4098C129.387 39.1992 129.823 40.2286 129.823 41.4982C129.823 42.7758 129.383 43.8256 128.504 44.6476C127.634 45.4695 126.421 45.8805 124.867 45.8805H117.201V44.3424L119.19 44.0006V34.5646L117.201 34.2228V32.6725H123.585V34.2228L121.595 34.5646V37.2135H124.867ZM124.867 44.0006C125.737 44.0006 126.376 43.7727 126.783 43.317C127.198 42.8531 127.406 42.2753 127.406 41.5836C127.406 40.9163 127.198 40.3344 126.783 39.838C126.368 39.3416 125.729 39.0934 124.867 39.0934H121.595V44.0006H124.867ZM138.075 49.7623L137.843 44.0006H138.88C139.328 43.4798 139.706 42.9549 140.016 42.4259C140.325 41.8969 140.569 41.2622 140.748 40.5216C140.935 39.7729 141.069 38.8126 141.151 37.6407L141.273 34.5524L139.356 34.2228V32.6725H151.966V34.2228L149.976 34.5646V44.0006H151.734L151.49 49.7623H149.329V45.8805H140.235V49.7623H138.075ZM141.651 44.0006H147.572V34.8087H143.665L143.556 37.6407C143.466 39.1056 143.254 40.3548 142.921 41.3883C142.595 42.4218 142.172 43.2926 141.651 44.0006ZM153.797 45.8805L153.834 43.8297L154.334 43.8175C155.197 43.8175 155.795 43.3984 156.129 42.5602C156.471 41.722 156.641 40.3059 156.641 38.3121V34.5646L154.652 34.2228V32.6725H167.921V34.2228L165.931 34.5646V44.0006L167.921 44.3424V45.8805H161.536V44.3424L163.526 44.0006V34.5768H159.046V38.3121C159.046 40.9163 158.7 42.8287 158.009 44.0494C157.325 45.2701 156.149 45.8805 154.481 45.8805H153.797ZM169.813 45.8805V44.3424L171.546 44.0861L173.805 40.3995C172.966 40.0984 172.319 39.6224 171.864 38.9713C171.416 38.3203 171.192 37.5675 171.192 36.713C171.192 35.5249 171.644 34.5564 172.547 33.8077C173.451 33.0509 174.688 32.6725 176.258 32.6725H183.827V34.2228L181.837 34.5646V44.0006L183.827 44.3424V45.8805H177.442V44.3424L179.432 44.0006V40.7535H176.173L173.048 45.8805H169.813ZM176.014 38.8615H179.432V34.5402H176.258C175.387 34.5402 174.728 34.7599 174.281 35.1993C173.833 35.6307 173.609 36.1434 173.609 36.7374C173.609 37.3234 173.809 37.8239 174.207 38.2389C174.614 38.6539 175.217 38.8615 176.014 38.8615ZM192.323 45.8805V44.3424L194.312 44.0006V34.5646L192.323 34.2228V32.6725H197.413L201.71 42.7311H201.783L206.092 32.6725H211.097V34.2228L209.107 34.5646V44.0006L211.097 44.3424V45.8805H204.713V44.3424L206.703 44.0006V36.713L206.629 36.6886L202.577 45.8805H200.916L196.79 36.4933L196.717 36.5177V44.0006L198.707 44.3424V45.8805H192.323ZM219.105 46.1368C217.884 46.1368 216.822 45.8601 215.919 45.3068C215.016 44.7452 214.316 43.9681 213.819 42.9752C213.331 41.9824 213.087 40.8349 213.087 39.5328V38.9957C213.087 37.7425 213.343 36.6235 213.856 35.6388C214.377 34.646 215.064 33.8647 215.919 33.295C216.781 32.7172 217.721 32.4283 218.739 32.4283C220.513 32.4283 221.856 32.9655 222.767 34.0397C223.687 35.1139 224.146 36.5462 224.146 38.3365V39.838H215.577L215.54 39.899C215.565 41.1686 215.886 42.2143 216.505 43.0363C217.123 43.8501 217.99 44.257 219.105 44.257C219.919 44.257 220.631 44.143 221.241 43.9152C221.86 43.6792 222.393 43.3577 222.84 42.9508L223.78 44.5133C223.308 44.969 222.682 45.3556 221.9 45.673C221.127 45.9822 220.195 46.1368 219.105 46.1368ZM215.65 37.9581H221.742V37.6407C221.742 36.6967 221.489 35.9073 220.985 35.2726C220.48 34.6378 219.731 34.3204 218.739 34.3204C217.933 34.3204 217.245 34.6622 216.676 35.3458C216.106 36.0213 215.756 36.8717 215.626 37.8971L215.65 37.9581ZM226.307 45.8805V44.3424L228.297 44.0006V34.5646L226.307 34.2228V32.6725H232.691V34.2228L230.702 34.5646V38.3854H236.573V34.5646L234.583 34.2228V32.6725H240.98V34.2228L238.99 34.5646V44.0006L240.98 44.3424V45.8805H234.583V44.3424L236.573 44.0006V40.2653H230.702V44.0006L232.691 44.3424V45.8805H226.307ZM242.957 45.8805V44.3424L244.691 44.0861L246.949 40.3995C246.111 40.0984 245.464 39.6224 245.008 38.9713C244.561 38.3203 244.337 37.5675 244.337 36.713C244.337 35.5249 244.788 34.5564 245.692 33.8077C246.595 33.0509 247.832 32.6725 249.403 32.6725H256.971V34.2228L254.981 34.5646V44.0006L256.971 44.3424V45.8805H250.587V44.3424L252.577 44.0006V40.7535H249.317L246.192 45.8805H242.957ZM249.159 38.8615H252.577V34.5402H249.403C248.532 34.5402 247.873 34.7599 247.425 35.1993C246.978 35.6307 246.754 36.1434 246.754 36.7374C246.754 37.3234 246.953 37.8239 247.352 38.2389C247.759 38.6539 248.361 38.8615 249.159 38.8615ZM27.601 77.8805V76.3424L29.5907 76.0006V66.5646L27.601 66.2228V64.6725H33.9852V66.2228L31.9955 66.5646V70.3854H37.8671V66.5646L35.8773 66.2228V64.6725H42.2738V66.2228L40.2841 66.5646V76.0006L42.2738 76.3424V77.8805H35.8773V76.3424L37.8671 76.0006V72.2653H31.9955V76.0006L33.9852 76.3424V77.8805H27.601ZM50.3793 78.1368C49.1586 78.1368 48.0966 77.8601 47.1932 77.3068C46.2899 76.7452 45.59 75.9681 45.0936 74.9752C44.6053 73.9824 44.3612 72.8349 44.3612 71.5328V70.9957C44.3612 69.7425 44.6176 68.6235 45.1302 67.6388C45.6511 66.646 46.3387 65.8647 47.1932 65.295C48.0559 64.7172 48.9958 64.4283 50.0131 64.4283C51.7872 64.4283 53.1299 64.9655 54.0414 66.0397C54.961 67.1139 55.4208 68.5462 55.4208 70.3365V71.838H46.8514L46.8148 71.899C46.8392 73.1686 47.1607 74.2143 47.7792 75.0363C48.3977 75.8501 49.2644 76.257 50.3793 76.257C51.1931 76.257 51.9052 76.143 52.5155 75.9152C53.134 75.6792 53.667 75.3577 54.1146 74.9508L55.0546 76.5133C54.5826 76.969 53.9559 77.3556 53.1747 77.673C52.4016 77.9822 51.4698 78.1368 50.3793 78.1368ZM46.9247 69.9581H53.016V69.6407C53.016 68.6967 52.7637 67.9073 52.2592 67.2726C51.7546 66.6378 51.0059 66.3204 50.0131 66.3204C49.2074 66.3204 48.5197 66.6622 47.9501 67.3458C47.3804 68.0213 47.0305 68.8717 46.9003 69.8971L46.9247 69.9581ZM63.807 77.8805V76.3424L65.7968 76.0006V66.5646L63.807 66.2228V64.6725H78.4799V66.2228L76.4901 66.5646V76.0006L78.4799 76.3424V77.8805H72.0956V76.3424L74.0853 76.0006V66.5768H68.2015V76.0006L70.1913 76.3424V77.8805H63.807ZM86.5365 78.1368C85.3158 78.1368 84.2619 77.852 83.3749 77.2823C82.496 76.7045 81.8164 75.9111 81.3363 74.902C80.8562 73.8847 80.6161 72.7251 80.6161 71.423V71.1544C80.6161 69.8523 80.8562 68.6967 81.3363 67.6876C81.8164 66.6704 82.496 65.8728 83.3749 65.295C84.2619 64.7172 85.3077 64.4283 86.5121 64.4283C87.7328 64.4283 88.7826 64.7172 89.6615 65.295C90.5485 65.8728 91.2321 66.6663 91.7123 67.6754C92.1924 68.6845 92.4325 69.8442 92.4325 71.1544V71.423C92.4325 72.7332 92.1924 73.8969 91.7123 74.9142C91.2321 75.9233 90.5526 76.7127 89.6737 77.2823C88.7948 77.852 87.7491 78.1368 86.5365 78.1368ZM86.5365 76.257C87.6758 76.257 88.5425 75.8012 89.1366 74.8898C89.7307 73.9783 90.0277 72.8227 90.0277 71.423V71.1544C90.0277 70.2267 89.8934 69.4007 89.6249 68.6764C89.3645 67.944 88.9738 67.3702 88.453 66.9552C87.9322 66.532 87.2852 66.3204 86.5121 66.3204C85.7471 66.3204 85.1042 66.532 84.5834 66.9552C84.0625 67.3702 83.6719 67.944 83.4115 68.6764C83.1511 69.4007 83.0209 70.2267 83.0209 71.1544V71.423C83.0209 72.8227 83.3138 73.9783 83.8998 74.8898C84.4939 75.8012 85.3728 76.257 86.5365 76.257ZM97.413 77.8805V76.3424L99.4027 76.0006V66.5402H96.6195L96.4364 68.6031H94.3856V64.6725H106.886V68.6031H104.823L104.64 66.5402H101.807V76.0006L103.797 76.3424V77.8805H97.413ZM108.448 82.9586V81.4083L110.316 81.0665V66.5646L108.326 66.2228V64.6725H112.379L112.599 66.2838C113.502 65.0468 114.767 64.4283 116.395 64.4283C117.485 64.4283 118.417 64.7254 119.19 65.3195C119.963 65.9054 120.553 66.7314 120.96 67.7975C121.367 68.8554 121.571 70.0965 121.571 71.5206V71.777C121.571 73.0465 121.363 74.1573 120.948 75.1095C120.541 76.0616 119.955 76.8063 119.19 77.3434C118.425 77.8724 117.506 78.1368 116.432 78.1368C114.828 78.1368 113.591 77.5957 112.721 76.5133V81.0665L114.82 81.4083V82.9586H108.448ZM115.687 76.257C116.826 76.257 117.689 75.8419 118.275 75.0118C118.861 74.1818 119.154 73.1035 119.154 71.777V71.5206C119.154 70.0151 118.861 68.7822 118.275 67.8219C117.689 66.8616 116.818 66.3815 115.662 66.3815C114.979 66.3815 114.393 66.5361 113.905 66.8453C113.416 67.1546 113.022 67.5778 112.721 68.1149V74.548C113.022 75.0932 113.412 75.5164 113.892 75.8175C114.381 76.1105 114.979 76.257 115.687 76.257ZM130.457 78.1368C129.237 78.1368 128.175 77.8601 127.271 77.3068C126.368 76.7452 125.668 75.9681 125.172 74.9752C124.683 73.9824 124.439 72.8349 124.439 71.5328V70.9957C124.439 69.7425 124.696 68.6235 125.208 67.6388C125.729 66.646 126.417 65.8647 127.271 65.295C128.134 64.7172 129.074 64.4283 130.091 64.4283C131.865 64.4283 133.208 64.9655 134.12 66.0397C135.039 67.1139 135.499 68.5462 135.499 70.3365V71.838H126.93L126.893 71.899C126.917 73.1686 127.239 74.2143 127.857 75.0363C128.476 75.8501 129.342 76.257 130.457 76.257C131.271 76.257 131.983 76.143 132.594 75.9152C133.212 75.6792 133.745 75.3577 134.193 74.9508L135.133 76.5133C134.661 76.969 134.034 77.3556 133.253 77.673C132.48 77.9822 131.548 78.1368 130.457 78.1368ZM127.003 69.9581H133.094V69.6407C133.094 68.6967 132.842 67.9073 132.337 67.2726C131.833 66.6378 131.084 66.3204 130.091 66.3204C129.286 66.3204 128.598 66.6622 128.028 67.3458C127.459 68.0213 127.109 68.8717 126.978 69.8971L127.003 69.9581ZM143.678 78.1368C142.465 78.1368 141.415 77.8642 140.528 77.319C139.649 76.7656 138.97 76.0047 138.49 75.0363C138.009 74.0597 137.769 72.9407 137.769 71.6793V69.9703C137.769 67.3662 138.315 65.291 139.405 63.7448C140.496 62.1985 141.96 61.2423 143.8 60.8761C144.825 60.6889 145.566 60.4651 146.021 60.2047C146.485 59.9443 146.717 59.517 146.717 58.923H148.573L148.597 58.9962C148.613 59.9484 148.471 60.6726 148.17 61.1691C147.869 61.6655 147.393 62.0317 146.742 62.2677C146.099 62.5037 145.269 62.7072 144.251 62.8781C143.136 63.0652 142.184 63.4965 141.395 64.172C140.614 64.8393 140.134 65.8199 139.954 67.1139L140.003 67.1749C140.483 66.6622 141.086 66.2431 141.81 65.9176C142.542 65.5921 143.32 65.4293 144.141 65.4293C145.256 65.4293 146.221 65.6857 147.035 66.1984C147.848 66.7111 148.475 67.4191 148.914 68.3224C149.362 69.2176 149.586 70.247 149.586 71.4108V71.6793C149.586 72.9407 149.346 74.0597 148.866 75.0363C148.385 76.0047 147.702 76.7656 146.815 77.319C145.936 77.8642 144.89 78.1368 143.678 78.1368ZM143.678 76.257C144.825 76.257 145.696 75.8256 146.29 74.963C146.884 74.1004 147.181 73.0058 147.181 71.6793V71.4108C147.181 70.2389 146.88 69.2623 146.278 68.4811C145.684 67.6998 144.809 67.3092 143.653 67.3092C142.506 67.3092 141.639 67.6998 141.053 68.4811C140.467 69.2623 140.174 70.2389 140.174 71.4108V71.6793C140.174 73.0058 140.467 74.1004 141.053 74.963C141.639 75.8256 142.514 76.257 143.678 76.257ZM151.673 77.8805V76.3424L153.663 76.0006V66.5646L151.673 66.2228V64.6725H158.045V66.2228L156.056 66.5646V74.0231L156.129 74.0475L161.952 64.6725H166.346V66.2228L164.356 66.5646V76.0006L166.346 76.3424V77.8805H159.962V76.3424L161.952 76.0006V68.5299L161.878 68.5055L156.056 77.8805H151.673ZM171.51 77.8805V76.3424L173.499 76.0006V66.5402H170.716L170.533 68.6031H168.482V64.6725H180.982V68.6031H178.919L178.736 66.5402H175.904V76.0006L177.894 76.3424V77.8805H171.51ZM187.953 78.1368C186.732 78.1368 185.67 77.8601 184.766 77.3068C183.863 76.7452 183.163 75.9681 182.667 74.9752C182.179 73.9824 181.934 72.8349 181.934 71.5328V70.9957C181.934 69.7425 182.191 68.6235 182.703 67.6388C183.224 66.646 183.912 65.8647 184.766 65.295C185.629 64.7172 186.569 64.4283 187.586 64.4283C189.36 64.4283 190.703 64.9655 191.615 66.0397C192.534 67.1139 192.994 68.5462 192.994 70.3365V71.838H184.425L184.388 71.899C184.412 73.1686 184.734 74.2143 185.352 75.0363C185.971 75.8501 186.838 76.257 187.953 76.257C188.766 76.257 189.478 76.143 190.089 75.9152C190.707 75.6792 191.24 75.3577 191.688 74.9508L192.628 76.5133C192.156 76.969 191.529 77.3556 190.748 77.673C189.975 77.9822 189.043 78.1368 187.953 78.1368ZM184.498 69.9581H190.589V69.6407C190.589 68.6967 190.337 67.9073 189.832 67.2726C189.328 66.6378 188.579 66.3204 187.586 66.3204C186.781 66.3204 186.093 66.6622 185.523 67.3458C184.954 68.0213 184.604 68.8717 184.474 69.8971L184.498 69.9581ZM194.813 77.8805L194.849 75.8297L195.35 75.8175C196.213 75.8175 196.811 75.3984 197.144 74.5602C197.486 73.722 197.657 72.3059 197.657 70.3121V66.5646L195.667 66.2228V64.6725H208.936V66.2228L206.947 66.5646V76.0006L208.936 76.3424V77.8805H202.552V76.3424L204.542 76.0006V66.5768H200.062V70.3121C200.062 72.9163 199.716 74.8287 199.024 76.0494C198.341 77.2701 197.165 77.8805 195.496 77.8805H194.813ZM218.885 69.2135C220.448 69.2135 221.664 69.6123 222.535 70.4098C223.406 71.1992 223.841 72.2286 223.841 73.4982C223.841 74.7758 223.402 75.8256 222.523 76.6476C221.652 77.4695 220.439 77.8805 218.885 77.8805H211.219V76.3424L213.209 76.0006V66.5646L211.219 66.2228V64.6725H217.603V66.2228L215.614 66.5646V69.2135H218.885ZM218.885 76.0006C219.756 76.0006 220.395 75.7727 220.802 75.317C221.217 74.8531 221.424 74.2753 221.424 73.5836C221.424 72.9163 221.217 72.3344 220.802 71.838C220.387 71.3416 219.748 71.0934 218.885 71.0934H215.614V76.0006H218.885ZM232.24 77.8805V76.3424L234.229 76.0006V66.5646L232.24 66.2228V64.6725H237.33L241.627 74.7311H241.7L246.009 64.6725H251.014V66.2228L249.024 66.5646V76.0006L251.014 76.3424V77.8805H244.63V76.3424L246.62 76.0006V68.713L246.546 68.6886L242.494 77.8805H240.833L236.707 68.4933L236.634 68.5177V76.0006L238.624 76.3424V77.8805H232.24ZM258.973 78.1368C257.752 78.1368 256.698 77.852 255.811 77.2823C254.932 76.7045 254.253 75.9111 253.773 74.902C253.293 73.8847 253.053 72.7251 253.053 71.423V71.1544C253.053 69.8523 253.293 68.6967 253.773 67.6876C254.253 66.6704 254.932 65.8728 255.811 65.295C256.698 64.7172 257.744 64.4283 258.949 64.4283C260.169 64.4283 261.219 64.7172 262.098 65.295C262.985 65.8728 263.669 66.6663 264.149 67.6754C264.629 68.6845 264.869 69.8442 264.869 71.1544V71.423C264.869 72.7332 264.629 73.8969 264.149 74.9142C263.669 75.9233 262.989 76.7127 262.11 77.2823C261.231 77.852 260.186 78.1368 258.973 78.1368ZM258.973 76.257C260.112 76.257 260.979 75.8012 261.573 74.8898C262.167 73.9783 262.464 72.8227 262.464 71.423V71.1544C262.464 70.2267 262.33 69.4007 262.061 68.6764C261.801 67.944 261.41 67.3702 260.89 66.9552C260.369 66.532 259.722 66.3204 258.949 66.3204C258.184 66.3204 257.541 66.532 257.02 66.9552C256.499 67.3702 256.108 67.944 255.848 68.6764C255.588 69.4007 255.457 70.2267 255.457 71.1544V71.423C255.457 72.8227 255.75 73.9783 256.336 74.8898C256.93 75.8012 257.809 76.257 258.973 76.257ZM273.499 78.1368C272.279 78.1368 271.217 77.8601 270.313 77.3068C269.41 76.7452 268.71 75.9681 268.214 74.9752C267.725 73.9824 267.481 72.8349 267.481 71.5328V70.9957C267.481 69.7425 267.738 68.6235 268.25 67.6388C268.771 66.646 269.459 65.8647 270.313 65.295C271.176 64.7172 272.116 64.4283 273.133 64.4283C274.907 64.4283 276.25 64.9655 277.161 66.0397C278.081 67.1139 278.541 68.5462 278.541 70.3365V71.838H269.972L269.935 71.899C269.959 73.1686 270.281 74.2143 270.899 75.0363C271.518 75.8501 272.384 76.257 273.499 76.257C274.313 76.257 275.025 76.143 275.636 75.9152C276.254 75.6792 276.787 75.3577 277.235 74.9508L278.175 76.5133C277.703 76.969 277.076 77.3556 276.295 77.673C275.522 77.9822 274.59 78.1368 273.499 78.1368ZM270.045 69.9581H276.136V69.6407C276.136 68.6967 275.884 67.9073 275.379 67.2726C274.875 66.6378 274.126 66.3204 273.133 66.3204C272.328 66.3204 271.64 66.6622 271.07 67.3458C270.501 68.0213 270.151 68.8717 270.02 69.8971L270.045 69.9581ZM280.702 77.8805V76.3424L282.691 76.0006V66.5646L280.702 66.2228V64.6725H287.074V66.2228L285.084 66.5646V74.0231L285.157 74.0475L290.98 64.6725H295.374V66.2228L293.385 66.5646V76.0006L295.374 76.3424V77.8805H288.99V76.3424L290.98 76.0006V68.5299L290.907 68.5055L285.084 77.8805H280.702ZM288.111 62.3531C286.931 62.3531 286.003 62.0358 285.328 61.401C284.653 60.7581 284.315 59.928 284.315 58.9108L284.339 58.8375H286.17C286.17 59.4235 286.325 59.8995 286.634 60.2657C286.952 60.632 287.444 60.8151 288.111 60.8151C288.762 60.8151 289.246 60.632 289.564 60.2657C289.881 59.8995 290.04 59.4235 290.04 58.8375H291.883L291.908 58.9108C291.899 59.928 291.558 60.7581 290.882 61.401C290.215 62.0358 289.291 62.3531 288.111 62.3531ZM303.968 77.8805V76.3424L305.958 76.0006V66.5646L303.968 66.2228V64.6725H318.641V66.2228L316.651 66.5646V76.0006L318.641 76.3424V77.8805H312.257V76.3424L314.246 76.0006V66.5768H308.363V76.0006L310.352 76.3424V77.8805H303.968ZM320.362 82.9586V81.4083L322.23 81.0665V66.5646L320.24 66.2228V64.6725H324.293L324.513 66.2838C325.416 65.0468 326.681 64.4283 328.309 64.4283C329.399 64.4283 330.331 64.7254 331.104 65.3195C331.877 65.9054 332.467 66.7314 332.874 67.7975C333.281 68.8554 333.485 70.0965 333.485 71.5206V71.777C333.485 73.0465 333.277 74.1573 332.862 75.1095C332.455 76.0616 331.869 76.8063 331.104 77.3434C330.339 77.8724 329.42 78.1368 328.346 78.1368C326.742 78.1368 325.505 77.5957 324.635 76.5133V81.0665L326.734 81.4083V82.9586H320.362ZM327.601 76.257C328.74 76.257 329.603 75.8419 330.189 75.0118C330.775 74.1818 331.068 73.1035 331.068 71.777V71.5206C331.068 70.0151 330.775 68.7822 330.189 67.8219C329.603 66.8616 328.732 66.3815 327.577 66.3815C326.893 66.3815 326.307 66.5361 325.819 66.8453C325.33 67.1546 324.936 67.5778 324.635 68.1149V74.548C324.936 75.0932 325.326 75.5164 325.807 75.8175C326.295 76.1105 326.893 76.257 327.601 76.257ZM342.323 78.1368C341.102 78.1368 340.048 77.852 339.161 77.2823C338.282 76.7045 337.603 75.9111 337.122 74.902C336.642 73.8847 336.402 72.7251 336.402 71.423V71.1544C336.402 69.8523 336.642 68.6967 337.122 67.6876C337.603 66.6704 338.282 65.8728 339.161 65.295C340.048 64.7172 341.094 64.4283 342.298 64.4283C343.519 64.4283 344.569 64.7172 345.448 65.295C346.335 65.8728 347.018 66.6663 347.498 67.6754C347.979 68.6845 348.219 69.8442 348.219 71.1544V71.423C348.219 72.7332 347.979 73.8969 347.498 74.9142C347.018 75.9233 346.339 76.7127 345.46 77.2823C344.581 77.852 343.535 78.1368 342.323 78.1368ZM342.323 76.257C343.462 76.257 344.329 75.8012 344.923 74.8898C345.517 73.9783 345.814 72.8227 345.814 71.423V71.1544C345.814 70.2267 345.68 69.4007 345.411 68.6764C345.151 67.944 344.76 67.3702 344.239 66.9552C343.718 66.532 343.071 66.3204 342.298 66.3204C341.533 66.3204 340.89 66.532 340.37 66.9552C339.849 67.3702 339.458 67.944 339.198 68.6764C338.937 69.4007 338.807 70.2267 338.807 71.1544V71.423C338.807 72.8227 339.1 73.9783 339.686 74.8898C340.28 75.8012 341.159 76.257 342.323 76.257ZM349.647 81.7623L349.415 76.0006H350.453C350.9 75.4798 351.279 74.9549 351.588 74.4259C351.897 73.8969 352.141 73.2622 352.32 72.5216C352.507 71.7729 352.642 70.8126 352.723 69.6407L352.845 66.5524L350.929 66.2228V64.6725H363.538V66.2228L361.549 66.5646V76.0006H363.307L363.062 81.7623H360.902V77.8805H351.807V81.7623H349.647ZM353.224 76.0006H359.144V66.8087H355.238L355.128 69.6407C355.038 71.1056 354.827 72.3548 354.493 73.3883C354.168 74.4218 353.744 75.2926 353.224 76.0006ZM368.299 83.215C368.112 83.215 367.868 83.1906 367.567 83.1417C367.266 83.101 367.034 83.0603 366.871 83.0197L367.115 81.1276C367.253 81.1438 367.445 81.156 367.689 81.1642C367.933 81.1805 368.1 81.1886 368.189 81.1886C368.702 81.1886 369.117 80.9933 369.434 80.6027C369.76 80.212 370.061 79.679 370.338 79.0035L370.911 77.6119L366.236 66.4181L364.82 66.2228V64.6725H370.362V66.2228L368.763 66.4669L371.339 73.0709L371.961 74.7921H372.035L375.086 66.4669L373.402 66.2228V64.6725H378.834V66.2228L377.467 66.4181L372.266 79.9069C371.9 80.8671 371.412 81.6565 370.802 82.275C370.191 82.9017 369.357 83.215 368.299 83.215ZM380.262 77.8805V76.3424L382.252 76.0006V66.5646L380.262 66.2228V64.6725H386.646V66.2228L384.657 66.5646V70.2511H385.926L388.685 66.5524C389.181 65.8606 389.666 65.3357 390.138 64.9777C390.618 64.6196 391.155 64.4406 391.749 64.4406C392.123 64.4406 392.432 64.4894 392.677 64.587C392.921 64.6766 393.197 64.819 393.507 65.0143L393.165 66.65C392.815 66.5931 392.612 66.5605 392.555 66.5524C392.506 66.5442 392.4 66.5402 392.237 66.5402C391.936 66.5402 391.639 66.65 391.346 66.8698C391.061 67.0895 390.809 67.3499 390.589 67.651L388.038 70.9591L392.201 76.0372L393.897 76.3424V77.8805H390.687L386.219 72.2775H384.657V76.0006L386.646 76.3424V77.8805H380.262ZM407.288 81.799V77.8805H395.362V76.3424L397.352 76.0006V66.5646L395.362 66.2228V64.6725H401.746V66.2228L399.757 66.5646V76.0006H405.641V66.5646L403.651 66.2228V64.6725H410.035V66.2228L408.045 66.5768V76.0006H409.669L409.437 81.799H407.288ZM412.318 77.8805V76.3424L414.307 76.0006V66.5646L412.318 66.2228V64.6725H418.69V66.2228L416.7 66.5646V74.0231L416.773 74.0475L422.596 64.6725H426.991V66.2228L425.001 66.5646V76.0006L426.991 76.3424V77.8805H420.606V76.3424L422.596 76.0006V68.5299L422.523 68.5055L416.7 77.8805H412.318ZM429.359 77.8805V76.3424L431.349 76.0006V66.5646L429.359 66.2228V64.6725H435.731V66.2228L433.741 66.5646V74.0231L433.814 74.0475L439.637 64.6725H444.032V66.2228L442.042 66.5646V76.0006L444.032 76.3424V77.8805H437.647V76.3424L439.637 76.0006V68.5299L439.564 68.5055L433.741 77.8805H429.359ZM446.851 81.6769L445.496 80.7736C445.879 80.1876 446.168 79.5895 446.363 78.9791C446.558 78.3688 446.656 77.7218 446.656 77.0382V75.1827H449.061V77.0016C449.061 77.7991 448.862 78.6333 448.463 79.504C448.064 80.3748 447.527 81.0991 446.851 81.6769ZM27.601 109.88V108.342L29.5907 108.001V98.5646L27.601 98.2228V96.6725H33.9852V98.2228L31.9955 98.5646V102.385H37.8671V98.5646L35.8773 98.2228V96.6725H42.2738V98.2228L40.2841 98.5646V108.001L42.2738 108.342V109.88H35.8773V108.342L37.8671 108.001V104.265H31.9955V108.001L33.9852 108.342V109.88H27.601ZM50.3793 110.137C49.1586 110.137 48.0966 109.86 47.1932 109.307C46.2899 108.745 45.59 107.968 45.0936 106.975C44.6053 105.982 44.3612 104.835 44.3612 103.533V102.996C44.3612 101.742 44.6176 100.623 45.1302 99.6388C45.6511 98.646 46.3387 97.8647 47.1932 97.295C48.0559 96.7172 48.9958 96.4283 50.0131 96.4283C51.7872 96.4283 53.1299 96.9655 54.0414 98.0397C54.961 99.1139 55.4208 100.546 55.4208 102.337V103.838H46.8514L46.8148 103.899C46.8392 105.169 47.1607 106.214 47.7792 107.036C48.3977 107.85 49.2644 108.257 50.3793 108.257C51.1931 108.257 51.9052 108.143 52.5155 107.915C53.134 107.679 53.667 107.358 54.1146 106.951L55.0546 108.513C54.5826 108.969 53.9559 109.356 53.1747 109.673C52.4016 109.982 51.4698 110.137 50.3793 110.137ZM46.9247 101.958H53.016V101.641C53.016 100.697 52.7637 99.9073 52.2592 99.2726C51.7546 98.6378 51.0059 98.3204 50.0131 98.3204C49.2074 98.3204 48.5197 98.6622 47.9501 99.3458C47.3804 100.021 47.0305 100.872 46.9003 101.897L46.9247 101.958ZM69.4955 110.137C68.2992 110.137 67.2575 109.86 66.3705 109.307C65.4834 108.745 64.7958 107.968 64.3075 106.975C63.8192 105.982 63.5751 104.835 63.5751 103.533V103.02C63.5751 101.767 63.8111 100.644 64.2831 99.651C64.7551 98.6582 65.4346 97.8728 66.3217 97.295C67.2087 96.7172 68.2666 96.4283 69.4955 96.4283C70.5616 96.4283 71.4934 96.6033 72.2909 96.9532C73.0966 97.3032 73.772 97.7833 74.3173 98.3937L74.3783 101.568H72.4984L72.0834 99.2604C71.8067 98.9755 71.4608 98.7477 71.0458 98.5768C70.6307 98.4059 70.1425 98.3204 69.5809 98.3204C68.8648 98.3204 68.2341 98.532 67.6888 98.9552C67.1517 99.3784 66.7326 99.944 66.4315 100.652C66.1304 101.36 65.9799 102.149 65.9799 103.02V103.533C65.9799 104.981 66.2932 106.133 66.9198 106.987C67.5464 107.834 68.4009 108.257 69.4833 108.257C70.2971 108.257 70.9725 108.033 71.5096 107.586C72.0468 107.138 72.3763 106.524 72.4984 105.742H74.6591L74.6835 105.816C74.6428 106.572 74.419 107.28 74.0121 107.94C73.6052 108.599 73.0233 109.132 72.2665 109.539C71.5178 109.937 70.5941 110.137 69.4955 110.137ZM79.432 115.215C79.2448 115.215 79.0007 115.191 78.6996 115.142C78.3985 115.101 78.1665 115.06 78.0038 115.02L78.2479 113.128C78.3863 113.144 78.5775 113.156 78.8217 113.164C79.0658 113.18 79.2326 113.189 79.3221 113.189C79.8348 113.189 80.2499 112.993 80.5673 112.603C80.8928 112.212 81.1939 111.679 81.4706 111.004L82.0443 109.612L77.369 98.4181L75.953 98.2228V96.6725H81.495V98.2228L79.8959 98.4669L82.4716 105.071L83.0941 106.792H83.1674L86.2191 98.4669L84.5345 98.2228V96.6725H89.9667V98.2228L88.5995 98.4181L83.3993 111.907C83.0331 112.867 82.5448 113.657 81.9344 114.275C81.3241 114.902 80.4899 115.215 79.432 115.215ZM90.5648 113.762L90.3329 108.001H91.3705C91.8181 107.48 92.1965 106.955 92.5057 106.426C92.815 105.897 93.0591 105.262 93.2382 104.522C93.4253 103.773 93.5596 102.813 93.641 101.641L93.7631 98.5524L91.8466 98.2228V96.6725H104.456V98.2228L102.467 98.5646V108.001H104.224L103.98 113.762H101.82V109.88H92.7255V113.762H90.5648ZM94.1415 108.001H100.062V98.8087H96.1556L96.0458 101.641C95.9563 103.106 95.7447 104.355 95.411 105.388C95.0855 106.422 94.6623 107.293 94.1415 108.001ZM114.295 101.214C115.858 101.214 117.074 101.612 117.945 102.41C118.816 103.199 119.251 104.229 119.251 105.498C119.251 106.776 118.812 107.826 117.933 108.648C117.062 109.47 115.85 109.88 114.295 109.88H106.629V108.342L108.619 108.001V98.5646L106.629 98.2228V96.6725H113.014V98.2228L111.024 98.5646V101.214H114.295ZM114.295 108.001C115.166 108.001 115.805 107.773 116.212 107.317C116.627 106.853 116.834 106.275 116.834 105.584C116.834 104.916 116.627 104.334 116.212 103.838C115.797 103.342 115.158 103.093 114.295 103.093H111.024V108.001H114.295ZM121.034 109.88V108.342L122.767 108.086L125.025 104.4C124.187 104.098 123.54 103.622 123.084 102.971C122.637 102.32 122.413 101.568 122.413 100.713C122.413 99.5249 122.865 98.5564 123.768 97.8077C124.671 97.0509 125.908 96.6725 127.479 96.6725H135.047V98.2228L133.057 98.5646V108.001L135.047 108.342V109.88H128.663V108.342L130.653 108.001V104.754H127.393L124.268 109.88H121.034ZM127.235 102.861H130.653V98.5402H127.479C126.608 98.5402 125.949 98.7599 125.501 99.1993C125.054 99.6307 124.83 100.143 124.83 100.737C124.83 101.323 125.029 101.824 125.428 102.239C125.835 102.654 126.437 102.861 127.235 102.861ZM137.769 113.677L136.414 112.774C136.797 112.188 137.086 111.589 137.281 110.979C137.476 110.369 137.574 109.722 137.574 109.038V107.183H139.979V109.002C139.979 109.799 139.78 110.633 139.381 111.504C138.982 112.375 138.445 113.099 137.769 113.677ZM152.467 110.137C151.091 110.137 150.046 109.803 149.329 109.136C148.613 108.46 148.255 107.512 148.255 106.292C148.255 105.038 148.768 104.033 149.793 103.276C150.819 102.512 152.243 102.129 154.066 102.129H156.422V100.835C156.422 100.038 156.178 99.4191 155.689 98.9796C155.209 98.5402 154.53 98.3204 153.651 98.3204C153.097 98.3204 152.617 98.3896 152.21 98.528C151.803 98.6582 151.433 98.8413 151.099 99.0773L150.843 100.921H148.988V97.8932C150.184 96.9166 151.751 96.4283 153.687 96.4283C155.291 96.4283 156.548 96.8108 157.459 97.5758C158.371 98.3408 158.827 99.4353 158.827 100.859V107.219C158.827 107.39 158.827 107.557 158.827 107.72C158.835 107.883 158.847 108.045 158.863 108.208L160.145 108.342V109.88H156.69C156.552 109.213 156.467 108.607 156.434 108.062C155.97 108.656 155.388 109.152 154.688 109.551C153.997 109.942 153.256 110.137 152.467 110.137ZM152.821 108.123C153.618 108.123 154.347 107.931 155.006 107.549C155.665 107.166 156.137 106.707 156.422 106.17V103.777H153.98C152.874 103.777 152.043 104.041 151.49 104.57C150.937 105.099 150.66 105.689 150.66 106.34C150.66 107.529 151.38 108.123 152.821 108.123ZM174.207 110.137C173.011 110.137 171.969 109.86 171.082 109.307C170.195 108.745 169.508 107.968 169.019 106.975C168.531 105.982 168.287 104.835 168.287 103.533V103.02C168.287 101.767 168.523 100.644 168.995 99.651C169.467 98.6582 170.147 97.8728 171.034 97.295C171.921 96.7172 172.979 96.4283 174.207 96.4283C175.273 96.4283 176.205 96.6033 177.003 96.9532C177.808 97.3032 178.484 97.7833 179.029 98.3937L179.09 101.568H177.21L176.795 99.2604C176.519 98.9755 176.173 98.7477 175.758 98.5768C175.343 98.4059 174.854 98.3204 174.293 98.3204C173.577 98.3204 172.946 98.532 172.401 98.9552C171.864 99.3784 171.445 99.944 171.143 100.652C170.842 101.36 170.692 102.149 170.692 103.02V103.533C170.692 104.981 171.005 106.133 171.632 106.987C172.258 107.834 173.113 108.257 174.195 108.257C175.009 108.257 175.684 108.033 176.222 107.586C176.759 107.138 177.088 106.524 177.21 105.742H179.371L179.395 105.816C179.355 106.572 179.131 107.28 178.724 107.94C178.317 108.599 177.735 109.132 176.978 109.539C176.23 109.937 175.306 110.137 174.207 110.137ZM187.562 110.137C186.341 110.137 185.287 109.852 184.4 109.282C183.521 108.705 182.842 107.911 182.362 106.902C181.882 105.885 181.641 104.725 181.641 103.423V103.154C181.641 101.852 181.882 100.697 182.362 99.6876C182.842 98.6704 183.521 97.8728 184.4 97.295C185.287 96.7172 186.333 96.4283 187.537 96.4283C188.758 96.4283 189.808 96.7172 190.687 97.295C191.574 97.8728 192.258 98.6663 192.738 99.6754C193.218 100.685 193.458 101.844 193.458 103.154V103.423C193.458 104.733 193.218 105.897 192.738 106.914C192.258 107.923 191.578 108.713 190.699 109.282C189.82 109.852 188.774 110.137 187.562 110.137ZM187.562 108.257C188.701 108.257 189.568 107.801 190.162 106.89C190.756 105.978 191.053 104.823 191.053 103.423V103.154C191.053 102.227 190.919 101.401 190.65 100.676C190.39 99.944 189.999 99.3702 189.478 98.9552C188.958 98.532 188.311 98.3204 187.537 98.3204C186.773 98.3204 186.13 98.532 185.609 98.9552C185.088 99.3702 184.697 99.944 184.437 100.676C184.176 101.401 184.046 102.227 184.046 103.154V103.423C184.046 104.823 184.339 105.978 184.925 106.89C185.519 107.801 186.398 108.257 187.562 108.257ZM198.06 115.215C197.873 115.215 197.629 115.191 197.328 115.142C197.026 115.101 196.794 115.06 196.632 115.02L196.876 113.128C197.014 113.144 197.205 113.156 197.45 113.164C197.694 113.18 197.861 113.189 197.95 113.189C198.463 113.189 198.878 112.993 199.195 112.603C199.521 112.212 199.822 111.679 200.099 111.004L200.672 109.612L195.997 98.4181L194.581 98.2228V96.6725H200.123V98.2228L198.524 98.4669L201.099 105.071L201.722 106.792H201.795L204.847 98.4669L203.162 98.2228V96.6725H208.595V98.2228L207.227 98.4181L202.027 111.907C201.661 112.867 201.173 113.657 200.562 114.275C199.952 114.902 199.118 115.215 198.06 115.215ZM217.725 109.88V108.342L219.715 108.001V105.169C218.804 105.405 217.807 105.523 216.724 105.523C215.129 105.523 213.88 105.103 212.977 104.265C212.074 103.427 211.622 102.186 211.622 100.542V98.5402L209.632 98.1984V96.6603H216.016V98.1984L214.027 98.5402V100.542C214.027 101.6 214.251 102.377 214.698 102.874C215.154 103.37 215.829 103.618 216.724 103.618C217.758 103.618 218.755 103.496 219.715 103.252V98.5646L217.725 98.2228V96.6725H224.11V98.2228L222.12 98.5646V108.001L224.11 108.342V109.88H217.725ZM230.567 110.137C229.192 110.137 228.146 109.803 227.43 109.136C226.714 108.46 226.356 107.512 226.356 106.292C226.356 105.038 226.869 104.033 227.894 103.276C228.919 102.512 230.343 102.129 232.166 102.129H234.522V100.835C234.522 100.038 234.278 99.4191 233.79 98.9796C233.31 98.5402 232.63 98.3204 231.751 98.3204C231.198 98.3204 230.718 98.3896 230.311 98.528C229.904 98.6582 229.534 98.8413 229.2 99.0773L228.944 100.921H227.088V97.8932C228.285 96.9166 229.851 96.4283 231.788 96.4283C233.391 96.4283 234.648 96.8108 235.56 97.5758C236.471 98.3408 236.927 99.4353 236.927 100.859V107.219C236.927 107.39 236.927 107.557 236.927 107.72C236.935 107.883 236.947 108.045 236.964 108.208L238.245 108.342V109.88H234.791C234.653 109.213 234.567 108.607 234.535 108.062C234.071 108.656 233.489 109.152 232.789 109.551C232.097 109.942 231.357 110.137 230.567 110.137ZM230.921 108.123C231.719 108.123 232.447 107.931 233.106 107.549C233.766 107.166 234.238 106.707 234.522 106.17V103.777H232.081C230.974 103.777 230.144 104.041 229.591 104.57C229.037 105.099 228.761 105.689 228.761 106.34C228.761 107.529 229.481 108.123 230.921 108.123ZM246.082 110.137C244.886 110.137 243.844 109.86 242.957 109.307C242.07 108.745 241.383 107.968 240.894 106.975C240.406 105.982 240.162 104.835 240.162 103.533V103.02C240.162 101.767 240.398 100.644 240.87 99.651C241.342 98.6582 242.022 97.8728 242.909 97.295C243.796 96.7172 244.854 96.4283 246.082 96.4283C247.148 96.4283 248.08 96.6033 248.878 96.9532C249.683 97.3032 250.359 97.7833 250.904 98.3937L250.965 101.568H249.085L248.67 99.2604C248.394 98.9755 248.048 98.7477 247.633 98.5768C247.218 98.4059 246.729 98.3204 246.168 98.3204C245.452 98.3204 244.821 98.532 244.276 98.9552C243.739 99.3784 243.32 99.944 243.018 100.652C242.717 101.36 242.567 102.149 242.567 103.02V103.533C242.567 104.981 242.88 106.133 243.507 106.987C244.133 107.834 244.988 108.257 246.07 108.257C246.884 108.257 247.559 108.033 248.097 107.586C248.634 107.138 248.963 106.524 249.085 105.742H251.246L251.27 105.816C251.23 106.572 251.006 107.28 250.599 107.94C250.192 108.599 249.61 109.132 248.853 109.539C248.105 109.937 247.181 110.137 246.082 110.137ZM256.226 109.88V108.342L258.216 108.001V98.5402H255.433L255.25 100.603H253.199V96.6725H265.699V100.603H263.636L263.453 98.5402H260.621V108.001L262.611 108.342V109.88H256.226ZM267.909 109.88V108.342L269.898 108.001V98.5646L267.909 98.2228V96.6725H274.293V98.2228L272.303 98.5646V102.385H278.175V98.5646L276.185 98.2228V96.6725H282.581V98.2228L280.592 98.5646V108.001L282.581 108.342V109.88H276.185V108.342L278.175 108.001V104.265H272.303V108.001L274.293 108.342V109.88H267.909ZM284.95 109.88V108.342L286.939 108.001V98.5646L284.95 98.2228V96.6725H291.322V98.2228L289.332 98.5646V106.023L289.405 106.047L295.228 96.6725H299.622V98.2228L297.633 98.5646V108.001L299.622 108.342V109.88H293.238V108.342L295.228 108.001V100.53L295.155 100.505L289.332 109.88H284.95ZM301.991 109.88V108.342L303.98 108.001V98.5646L301.991 98.2228V96.6725H308.375V98.2228L306.385 98.5646V102.251H307.655L310.413 98.5524C310.91 97.8606 311.394 97.3357 311.866 96.9777C312.346 96.6196 312.883 96.4406 313.477 96.4406C313.852 96.4406 314.161 96.4894 314.405 96.587C314.649 96.6766 314.926 96.819 315.235 97.0143L314.893 98.65C314.543 98.5931 314.34 98.5605 314.283 98.5524C314.234 98.5442 314.128 98.5402 313.966 98.5402C313.665 98.5402 313.368 98.65 313.075 98.8698C312.79 99.0895 312.537 99.3499 312.318 99.651L309.766 102.959L313.929 108.037L315.626 108.342V109.88H312.415L307.948 104.277H306.385V108.001L308.375 108.342V109.88H301.991ZM30.3964 141.88V140.342L32.3861 140.001V130.54H29.6029L29.4198 132.603H27.369V128.672H39.869V132.603H37.806L37.6229 130.54H34.7909V140.001L36.7806 140.342V141.88H30.3964ZM42.0785 141.88V140.342L44.0682 140.001V130.565L42.0785 130.223V128.672H49.2684C51.01 128.672 52.3609 128.978 53.3212 129.588C54.2815 130.19 54.7616 131.098 54.7616 132.31C54.7616 132.929 54.5744 133.482 54.2001 133.97C53.8257 134.45 53.2968 134.817 52.6132 135.069C53.4351 135.272 54.078 135.655 54.5419 136.216C55.0057 136.77 55.2377 137.405 55.2377 138.121C55.2377 139.358 54.786 140.294 53.8827 140.928C52.9875 141.563 51.7302 141.88 50.1107 141.88H42.0785ZM46.473 134.251H49.2806C51.3314 134.251 52.3568 133.645 52.3568 132.432C52.3568 131.171 51.3274 130.54 49.2684 130.54H46.473V134.251ZM46.473 140.025H50.1107C51.9174 140.025 52.8207 139.37 52.8207 138.06C52.8207 137.433 52.5928 136.949 52.1371 136.607C51.6814 136.265 51.0059 136.094 50.1107 136.094H46.473V140.025ZM63.2943 142.137C62.0736 142.137 61.0197 141.852 60.1327 141.282C59.2538 140.705 58.5743 139.911 58.0941 138.902C57.614 137.885 57.3739 136.725 57.3739 135.423V135.154C57.3739 133.852 57.614 132.697 58.0941 131.688C58.5743 130.67 59.2538 129.873 60.1327 129.295C61.0197 128.717 62.0655 128.428 63.2699 128.428C64.4906 128.428 65.5404 128.717 66.4193 129.295C67.3064 129.873 67.9899 130.666 68.4701 131.675C68.9502 132.685 69.1903 133.844 69.1903 135.154V135.423C69.1903 136.733 68.9502 137.897 68.4701 138.914C67.9899 139.923 67.3104 140.713 66.4315 141.282C65.5526 141.852 64.5069 142.137 63.2943 142.137ZM63.2943 140.257C64.4336 140.257 65.3003 139.801 65.8944 138.89C66.4885 137.978 66.7855 136.823 66.7855 135.423V135.154C66.7855 134.227 66.6512 133.401 66.3827 132.676C66.1223 131.944 65.7316 131.37 65.2108 130.955C64.69 130.532 64.043 130.32 63.2699 130.32C62.5049 130.32 61.862 130.532 61.3412 130.955C60.8204 131.37 60.4297 131.944 60.1693 132.676C59.9089 133.401 59.7787 134.227 59.7787 135.154V135.423C59.7787 136.823 60.0717 137.978 60.6576 138.89C61.2517 139.801 62.1306 140.257 63.2943 140.257ZM70.9969 146.959V145.408L72.8646 145.067V130.565L70.8749 130.223V128.672H74.9276L75.1473 130.284C76.0507 129.047 77.3161 128.428 78.9437 128.428C80.0342 128.428 80.966 128.725 81.7391 129.319C82.5122 129.905 83.1023 130.731 83.5092 131.797C83.9161 132.855 84.1195 134.096 84.1195 135.521V135.777C84.1195 137.047 83.912 138.157 83.4969 139.109C83.09 140.062 82.5041 140.806 81.7391 141.343C80.9742 141.872 80.0546 142.137 78.9803 142.137C77.3772 142.137 76.1402 141.596 75.2694 140.513V145.067L77.369 145.408V146.959H70.9969ZM78.2357 140.257C79.375 140.257 80.2377 139.842 80.8236 139.012C81.4095 138.182 81.7025 137.103 81.7025 135.777V135.521C81.7025 134.015 81.4095 132.782 80.8236 131.822C80.2377 130.862 79.3669 130.381 78.2113 130.381C77.5277 130.381 76.9418 130.536 76.4535 130.845C75.9652 131.155 75.5705 131.578 75.2694 132.115V138.548C75.5705 139.093 75.9611 139.516 76.4413 139.818C76.9296 140.11 77.5277 140.257 78.2357 140.257ZM94.4833 141.88V140.342L96.473 140.001V137.169C95.5616 137.405 94.5647 137.523 93.4823 137.523C91.8872 137.523 90.6381 137.103 89.7347 136.265C88.8314 135.427 88.3798 134.186 88.3798 132.542V130.54L86.39 130.198V128.66H92.7743V130.198L90.7845 130.54V132.542C90.7845 133.6 91.0083 134.377 91.4559 134.874C91.9117 135.37 92.5871 135.618 93.4823 135.618C94.5158 135.618 95.5127 135.496 96.473 135.252V130.565L94.4833 130.223V128.672H100.868V130.223L98.8778 130.565V140.001L100.868 140.342V141.88H94.4833ZM109.071 142.137C107.85 142.137 106.788 141.86 105.885 141.307C104.981 140.745 104.281 139.968 103.785 138.975C103.297 137.982 103.053 136.835 103.053 135.533V134.996C103.053 133.742 103.309 132.623 103.822 131.639C104.342 130.646 105.03 129.865 105.885 129.295C106.747 128.717 107.687 128.428 108.704 128.428C110.479 128.428 111.821 128.965 112.733 130.04C113.652 131.114 114.112 132.546 114.112 134.337V135.838H105.543L105.506 135.899C105.531 137.169 105.852 138.214 106.471 139.036C107.089 139.85 107.956 140.257 109.071 140.257C109.884 140.257 110.597 140.143 111.207 139.915C111.825 139.679 112.358 139.358 112.806 138.951L113.746 140.513C113.274 140.969 112.647 141.356 111.866 141.673C111.093 141.982 110.161 142.137 109.071 142.137ZM105.616 133.958H111.707V133.641C111.707 132.697 111.455 131.907 110.951 131.273C110.446 130.638 109.697 130.32 108.704 130.32C107.899 130.32 107.211 130.662 106.641 131.346C106.072 132.021 105.722 132.872 105.592 133.897L105.616 133.958ZM122.45 142.137C121.253 142.137 120.212 141.86 119.325 141.307C118.438 140.745 117.75 139.968 117.262 138.975C116.773 137.982 116.529 136.835 116.529 135.533V135.02C116.529 133.767 116.765 132.644 117.237 131.651C117.709 130.658 118.389 129.873 119.276 129.295C120.163 128.717 121.221 128.428 122.45 128.428C123.516 128.428 124.447 128.603 125.245 128.953C126.051 129.303 126.726 129.783 127.271 130.394L127.332 133.568H125.453L125.037 131.26C124.761 130.976 124.415 130.748 124 130.577C123.585 130.406 123.097 130.32 122.535 130.32C121.819 130.32 121.188 130.532 120.643 130.955C120.106 131.378 119.687 131.944 119.386 132.652C119.085 133.36 118.934 134.149 118.934 135.02V135.533C118.934 136.981 119.247 138.133 119.874 138.987C120.501 139.834 121.355 140.257 122.437 140.257C123.251 140.257 123.927 140.033 124.464 139.586C125.001 139.138 125.33 138.524 125.453 137.742H127.613L127.638 137.816C127.597 138.572 127.373 139.28 126.966 139.94C126.559 140.599 125.977 141.132 125.221 141.539C124.472 141.937 123.548 142.137 122.45 142.137ZM132.594 141.88V140.342L134.583 140.001V130.54H131.8L131.617 132.603H129.566V128.672H142.066V132.603H140.003L139.82 130.54H136.988V140.001L138.978 140.342V141.88H132.594ZM144.276 141.88V140.342L146.266 140.001V130.565L144.276 130.223V128.672H151.466C153.207 128.672 154.558 128.978 155.518 129.588C156.479 130.19 156.959 131.098 156.959 132.31C156.959 132.929 156.772 133.482 156.397 133.97C156.023 134.45 155.494 134.817 154.81 135.069C155.632 135.272 156.275 135.655 156.739 136.216C157.203 136.77 157.435 137.405 157.435 138.121C157.435 139.358 156.983 140.294 156.08 140.928C155.185 141.563 153.927 141.88 152.308 141.88H144.276ZM148.67 134.251H151.478C153.529 134.251 154.554 133.645 154.554 132.432C154.554 131.171 153.525 130.54 151.466 130.54H148.67V134.251ZM148.67 140.025H152.308C154.115 140.025 155.018 139.37 155.018 138.06C155.018 137.433 154.79 136.949 154.334 136.607C153.879 136.265 153.203 136.094 152.308 136.094H148.67V140.025ZM163.795 142.137C162.419 142.137 161.374 141.803 160.658 141.136C159.941 140.46 159.583 139.512 159.583 138.292C159.583 137.038 160.096 136.033 161.121 135.276C162.147 134.512 163.571 134.129 165.394 134.129H167.75V132.835C167.75 132.038 167.506 131.419 167.017 130.98C166.537 130.54 165.858 130.32 164.979 130.32C164.425 130.32 163.945 130.39 163.538 130.528C163.132 130.658 162.761 130.841 162.428 131.077L162.171 132.921H160.316V129.893C161.512 128.917 163.079 128.428 165.016 128.428C166.619 128.428 167.876 128.811 168.787 129.576C169.699 130.341 170.155 131.435 170.155 132.859V139.219C170.155 139.39 170.155 139.557 170.155 139.72C170.163 139.883 170.175 140.045 170.191 140.208L171.473 140.342V141.88H168.018C167.88 141.213 167.795 140.607 167.762 140.062C167.298 140.656 166.716 141.152 166.016 141.551C165.325 141.942 164.584 142.137 163.795 142.137ZM164.149 140.123C164.946 140.123 165.675 139.931 166.334 139.549C166.993 139.166 167.465 138.707 167.75 138.17V135.777H165.308C164.202 135.777 163.372 136.041 162.818 136.57C162.265 137.099 161.988 137.689 161.988 138.34C161.988 139.529 162.708 140.123 164.149 140.123ZM174.073 145.677L172.718 144.774C173.101 144.188 173.39 143.589 173.585 142.979C173.78 142.369 173.878 141.722 173.878 141.038V139.183H176.283V141.002C176.283 141.799 176.083 142.633 175.684 143.504C175.286 144.375 174.749 145.099 174.073 145.677ZM190.467 142.137C189.271 142.137 188.229 141.86 187.342 141.307C186.455 140.745 185.767 139.968 185.279 138.975C184.791 137.982 184.547 136.835 184.547 135.533V135.02C184.547 133.767 184.783 132.644 185.255 131.651C185.727 130.658 186.406 129.873 187.293 129.295C188.18 128.717 189.238 128.428 190.467 128.428C191.533 128.428 192.465 128.603 193.263 128.953C194.068 129.303 194.744 129.783 195.289 130.394L195.35 133.568H193.47L193.055 131.26C192.778 130.976 192.432 130.748 192.017 130.577C191.602 130.406 191.114 130.32 190.553 130.32C189.836 130.32 189.206 130.532 188.661 130.955C188.123 131.378 187.704 131.944 187.403 132.652C187.102 133.36 186.952 134.149 186.952 135.02V135.533C186.952 136.981 187.265 138.133 187.891 138.987C188.518 139.834 189.373 140.257 190.455 140.257C191.269 140.257 191.944 140.033 192.481 139.586C193.018 139.138 193.348 138.524 193.47 137.742H195.631L195.655 137.816C195.614 138.572 195.391 139.28 194.984 139.94C194.577 140.599 193.995 141.132 193.238 141.539C192.489 141.937 191.566 142.137 190.467 142.137ZM203.822 142.137C202.601 142.137 201.547 141.852 200.66 141.282C199.781 140.705 199.102 139.911 198.621 138.902C198.141 137.885 197.901 136.725 197.901 135.423V135.154C197.901 133.852 198.141 132.697 198.621 131.688C199.102 130.67 199.781 129.873 200.66 129.295C201.547 128.717 202.593 128.428 203.797 128.428C205.018 128.428 206.068 128.717 206.947 129.295C207.834 129.873 208.517 130.666 208.997 131.675C209.478 132.685 209.718 133.844 209.718 135.154V135.423C209.718 136.733 209.478 137.897 208.997 138.914C208.517 139.923 207.838 140.713 206.959 141.282C206.08 141.852 205.034 142.137 203.822 142.137ZM203.822 140.257C204.961 140.257 205.828 139.801 206.422 138.89C207.016 137.978 207.313 136.823 207.313 135.423V135.154C207.313 134.227 207.179 133.401 206.91 132.676C206.65 131.944 206.259 131.37 205.738 130.955C205.217 130.532 204.57 130.32 203.797 130.32C203.032 130.32 202.389 130.532 201.869 130.955C201.348 131.37 200.957 131.944 200.697 132.676C200.436 133.401 200.306 134.227 200.306 135.154V135.423C200.306 136.823 200.599 137.978 201.185 138.89C201.779 139.801 202.658 140.257 203.822 140.257ZM216.407 142.137C215.032 142.137 213.986 141.803 213.27 141.136C212.554 140.46 212.196 139.512 212.196 138.292C212.196 137.038 212.708 136.033 213.734 135.276C214.759 134.512 216.183 134.129 218.006 134.129H220.362V132.835C220.362 132.038 220.118 131.419 219.63 130.98C219.15 130.54 218.47 130.32 217.591 130.32C217.038 130.32 216.558 130.39 216.151 130.528C215.744 130.658 215.374 130.841 215.04 131.077L214.784 132.921H212.928V129.893C214.124 128.917 215.691 128.428 217.628 128.428C219.231 128.428 220.488 128.811 221.4 129.576C222.311 130.341 222.767 131.435 222.767 132.859V139.219C222.767 139.39 222.767 139.557 222.767 139.72C222.775 139.883 222.787 140.045 222.804 140.208L224.085 140.342V141.88H220.631C220.492 141.213 220.407 140.607 220.374 140.062C219.911 140.656 219.329 141.152 218.629 141.551C217.937 141.942 217.196 142.137 216.407 142.137ZM216.761 140.123C217.559 140.123 218.287 139.931 218.946 139.549C219.605 139.166 220.077 138.707 220.362 138.17V135.777H217.921C216.814 135.777 215.984 136.041 215.431 136.57C214.877 137.099 214.6 137.689 214.6 138.34C214.6 139.529 215.321 140.123 216.761 140.123ZM226.234 141.88V140.342L228.224 140.001V130.565L226.234 130.223V128.672H233.424C235.165 128.672 236.516 128.978 237.476 129.588C238.437 130.19 238.917 131.098 238.917 132.31C238.917 132.929 238.73 133.482 238.355 133.97C237.981 134.45 237.452 134.817 236.768 135.069C237.59 135.272 238.233 135.655 238.697 136.216C239.161 136.77 239.393 137.405 239.393 138.121C239.393 139.358 238.941 140.294 238.038 140.928C237.143 141.563 235.885 141.88 234.266 141.88H226.234ZM230.628 134.251H233.436C235.487 134.251 236.512 133.645 236.512 132.432C236.512 131.171 235.483 130.54 233.424 130.54H230.628V134.251ZM230.628 140.025H234.266C236.073 140.025 236.976 139.37 236.976 138.06C236.976 137.433 236.748 136.949 236.292 136.607C235.837 136.265 235.161 136.094 234.266 136.094H230.628V140.025ZM244.41 141.88V140.342L246.4 140.001V130.54H243.617L243.433 132.603H241.383V128.672H253.883V132.603H251.82L251.637 130.54H248.805V140.001L250.794 140.342V141.88H244.41ZM261.268 142.137C260.047 142.137 258.993 141.852 258.106 141.282C257.227 140.705 256.548 139.911 256.068 138.902C255.588 137.885 255.348 136.725 255.348 135.423V135.154C255.348 133.852 255.588 132.697 256.068 131.688C256.548 130.67 257.227 129.873 258.106 129.295C258.993 128.717 260.039 128.428 261.244 128.428C262.464 128.428 263.514 128.717 264.393 129.295C265.28 129.873 265.964 130.666 266.444 131.675C266.924 132.685 267.164 133.844 267.164 135.154V135.423C267.164 136.733 266.924 137.897 266.444 138.914C265.964 139.923 265.284 140.713 264.405 141.282C263.526 141.852 262.481 142.137 261.268 142.137ZM261.268 140.257C262.407 140.257 263.274 139.801 263.868 138.89C264.462 137.978 264.759 136.823 264.759 135.423V135.154C264.759 134.227 264.625 133.401 264.356 132.676C264.096 131.944 263.705 131.37 263.184 130.955C262.664 130.532 262.017 130.32 261.244 130.32C260.479 130.32 259.836 130.532 259.315 130.955C258.794 131.37 258.403 131.944 258.143 132.676C257.883 133.401 257.752 134.227 257.752 135.154V135.423C257.752 136.823 258.045 137.978 258.631 138.89C259.225 139.801 260.104 140.257 261.268 140.257ZM268.971 146.959V145.408L270.838 145.067V130.565L268.849 130.223V128.672H272.901L273.121 130.284C274.024 129.047 275.29 128.428 276.917 128.428C278.008 128.428 278.94 128.725 279.713 129.319C280.486 129.905 281.076 130.731 281.483 131.797C281.89 132.855 282.093 134.096 282.093 135.521V135.777C282.093 137.047 281.886 138.157 281.471 139.109C281.064 140.062 280.478 140.806 279.713 141.343C278.948 141.872 278.028 142.137 276.954 142.137C275.351 142.137 274.114 141.596 273.243 140.513V145.067L275.343 145.408V146.959H268.971ZM276.209 140.257C277.349 140.257 278.211 139.842 278.797 139.012C279.383 138.182 279.676 137.103 279.676 135.777V135.521C279.676 134.015 279.383 132.782 278.797 131.822C278.211 130.862 277.341 130.381 276.185 130.381C275.501 130.381 274.915 130.536 274.427 130.845C273.939 131.155 273.544 131.578 273.243 132.115V138.548C273.544 139.093 273.935 139.516 274.415 139.818C274.903 140.11 275.501 140.257 276.209 140.257ZM285.34 141.88V139.415H287.745V141.88H285.34Z" fill="white"/>
<path d="M289.689 171.289H283.732L282.394 175H280.46L285.89 160.781H287.531L292.97 175H291.046L289.689 171.289ZM284.298 169.746H289.132L286.71 163.096L284.298 169.746ZM303.234 175H301.427V170.488H296.574V175H294.757V164.434H296.574V169.014H301.427V164.434H303.234V175ZM306.056 173.525L306.681 172.754C307.384 171.842 307.785 170.475 307.882 168.652L308.048 164.434H314.855V173.525H316.212V178.105H314.406V175H307.033V178.105H305.226L305.236 173.525H306.056ZM308.195 173.525H313.048V166.104H309.796L309.689 168.623C309.578 170.726 309.08 172.36 308.195 173.525ZM327.14 169.834C327.14 171.442 326.772 172.738 326.037 173.721C325.301 174.704 324.305 175.195 323.048 175.195C321.766 175.195 320.757 174.788 320.021 173.975V179.062H318.214V164.434H319.865L319.953 165.605C320.688 164.694 321.71 164.238 323.019 164.238C324.289 164.238 325.291 164.717 326.027 165.674C326.769 166.631 327.14 167.962 327.14 169.668V169.834ZM325.333 169.629C325.333 168.438 325.08 167.497 324.572 166.807C324.064 166.117 323.367 165.771 322.482 165.771C321.388 165.771 320.568 166.257 320.021 167.227V172.275C320.561 173.239 321.388 173.721 322.501 173.721C323.367 173.721 324.054 173.379 324.562 172.695C325.076 172.005 325.333 170.983 325.333 169.629ZM333.83 175.195C332.397 175.195 331.232 174.727 330.333 173.789C329.435 172.845 328.986 171.585 328.986 170.01V169.678C328.986 168.63 329.184 167.695 329.582 166.875C329.985 166.048 330.545 165.404 331.261 164.941C331.984 164.473 332.765 164.238 333.605 164.238C334.979 164.238 336.046 164.691 336.808 165.596C337.57 166.501 337.951 167.796 337.951 169.482V170.234H330.792C330.818 171.276 331.121 172.119 331.701 172.764C332.287 173.402 333.029 173.721 333.927 173.721C334.565 173.721 335.106 173.59 335.548 173.33C335.991 173.07 336.378 172.725 336.71 172.295L337.814 173.154C336.929 174.515 335.6 175.195 333.83 175.195ZM333.605 165.723C332.876 165.723 332.264 165.99 331.769 166.523C331.274 167.051 330.968 167.793 330.851 168.75H336.144V168.613C336.092 167.695 335.845 166.986 335.402 166.484C334.959 165.977 334.36 165.723 333.605 165.723ZM346.886 164.434H348.693V175H346.886V167.295L342.013 175H340.207V164.434H342.013V172.148L346.886 164.434ZM347.374 160.586C347.374 161.374 347.104 162.008 346.564 162.49C346.03 162.965 345.327 163.203 344.455 163.203C343.582 163.203 342.876 162.962 342.335 162.48C341.795 161.999 341.525 161.367 341.525 160.586H342.999C342.999 161.042 343.123 161.4 343.371 161.66C343.618 161.914 343.979 162.041 344.455 162.041C344.91 162.041 345.265 161.914 345.519 161.66C345.779 161.406 345.91 161.048 345.91 160.586H347.374ZM366.271 162.324H361.701V175H359.835V162.324H355.275V160.781H366.271V162.324ZM373.507 175C373.403 174.792 373.318 174.421 373.253 173.887C372.414 174.759 371.411 175.195 370.246 175.195C369.204 175.195 368.348 174.902 367.677 174.316C367.013 173.724 366.681 172.975 366.681 172.07C366.681 170.97 367.098 170.117 367.931 169.512C368.771 168.9 369.949 168.594 371.466 168.594H373.224V167.764C373.224 167.132 373.035 166.631 372.658 166.26C372.28 165.882 371.723 165.693 370.988 165.693C370.343 165.693 369.803 165.856 369.367 166.182C368.93 166.507 368.712 166.901 368.712 167.363H366.896C366.896 166.836 367.082 166.328 367.453 165.84C367.83 165.345 368.338 164.954 368.976 164.668C369.621 164.382 370.327 164.238 371.095 164.238C372.313 164.238 373.266 164.544 373.957 165.156C374.647 165.762 375.005 166.598 375.031 167.666V172.529C375.031 173.499 375.154 174.271 375.402 174.844V175H373.507ZM370.509 173.623C371.076 173.623 371.613 173.477 372.121 173.184C372.628 172.891 372.996 172.51 373.224 172.041V169.873H371.808C369.595 169.873 368.488 170.521 368.488 171.816C368.488 172.383 368.677 172.826 369.054 173.145C369.432 173.464 369.917 173.623 370.509 173.623ZM386.789 169.834C386.789 171.442 386.421 172.738 385.685 173.721C384.949 174.704 383.953 175.195 382.697 175.195C381.414 175.195 380.405 174.788 379.669 173.975V179.062H377.863V164.434H379.513L379.601 165.605C380.337 164.694 381.359 164.238 382.667 164.238C383.937 164.238 384.94 164.717 385.675 165.674C386.417 166.631 386.789 167.962 386.789 169.668V169.834ZM384.982 169.629C384.982 168.438 384.728 167.497 384.22 166.807C383.712 166.117 383.016 165.771 382.13 165.771C381.037 165.771 380.216 166.257 379.669 167.227V172.275C380.21 173.239 381.037 173.721 382.15 173.721C383.016 173.721 383.703 173.379 384.21 172.695C384.725 172.005 384.982 170.983 384.982 169.629ZM392.384 170.498H391.066V175H389.249V164.434H391.066V168.906H392.248L395.802 164.434H397.99L393.81 169.512L398.341 175H396.046L392.384 170.498ZM399.201 169.619C399.201 168.584 399.402 167.653 399.806 166.826C400.216 165.999 400.783 165.361 401.505 164.912C402.235 164.463 403.065 164.238 403.996 164.238C405.434 164.238 406.596 164.736 407.482 165.732C408.374 166.729 408.82 168.053 408.82 169.707V169.834C408.82 170.863 408.621 171.787 408.224 172.607C407.833 173.421 407.27 174.056 406.535 174.512C405.805 174.967 404.966 175.195 404.015 175.195C402.583 175.195 401.421 174.697 400.529 173.701C399.643 172.705 399.201 171.387 399.201 169.746V169.619ZM401.017 169.834C401.017 171.006 401.287 171.947 401.828 172.656C402.374 173.366 403.104 173.721 404.015 173.721C404.933 173.721 405.662 173.363 406.203 172.646C406.743 171.924 407.013 170.915 407.013 169.619C407.013 168.46 406.736 167.523 406.183 166.807C405.636 166.084 404.907 165.723 403.996 165.723C403.104 165.723 402.384 166.077 401.837 166.787C401.29 167.497 401.017 168.512 401.017 169.834ZM411.251 175V164.434H415.373C416.779 164.434 417.856 164.681 418.605 165.176C419.36 165.664 419.738 166.383 419.738 167.334C419.738 167.822 419.591 168.265 419.298 168.662C419.005 169.053 418.572 169.352 417.999 169.561C418.638 169.71 419.149 170.003 419.533 170.439C419.923 170.876 420.119 171.396 420.119 172.002C420.119 172.972 419.761 173.714 419.044 174.229C418.335 174.743 417.329 175 416.027 175H411.251ZM413.058 170.361V173.545H416.046C416.802 173.545 417.365 173.405 417.736 173.125C418.113 172.845 418.302 172.451 418.302 171.943C418.302 170.889 417.527 170.361 415.978 170.361H413.058ZM413.058 168.916H415.392C417.085 168.916 417.931 168.421 417.931 167.432C417.931 166.442 417.13 165.931 415.529 165.898H413.058V168.916ZM426.749 173.721C427.394 173.721 427.957 173.525 428.439 173.135C428.921 172.744 429.188 172.256 429.24 171.67H430.949C430.916 172.275 430.708 172.852 430.324 173.398C429.94 173.945 429.425 174.382 428.781 174.707C428.143 175.033 427.466 175.195 426.749 175.195C425.311 175.195 424.165 174.717 423.312 173.76C422.466 172.796 422.042 171.481 422.042 169.814V169.512C422.042 168.483 422.231 167.568 422.609 166.768C422.986 165.967 423.527 165.345 424.23 164.902C424.94 164.46 425.776 164.238 426.74 164.238C427.925 164.238 428.908 164.593 429.689 165.303C430.477 166.012 430.897 166.934 430.949 168.066H429.24C429.188 167.383 428.927 166.823 428.458 166.387C427.996 165.944 427.423 165.723 426.74 165.723C425.822 165.723 425.109 166.055 424.601 166.719C424.1 167.376 423.849 168.33 423.849 169.58V169.922C423.849 171.139 424.1 172.077 424.601 172.734C425.102 173.392 425.818 173.721 426.749 173.721ZM436.271 170.498H434.953V175H433.136V164.434H434.953V168.906H436.134L439.689 164.434H441.876L437.697 169.512L442.228 175H439.933L436.271 170.498ZM450.617 164.434H452.423V175H450.617V167.295L445.744 175H443.937V164.434H445.744V172.148L450.617 164.434ZM462.16 164.434H463.966V175H462.16V167.295L457.287 175H455.48V164.434H457.287V172.148L462.16 164.434ZM462.648 160.586C462.648 161.374 462.378 162.008 461.837 162.49C461.304 162.965 460.6 163.203 459.728 163.203C458.856 163.203 458.149 162.962 457.609 162.48C457.068 161.999 456.798 161.367 456.798 160.586H458.273C458.273 161.042 458.397 161.4 458.644 161.66C458.891 161.914 459.253 162.041 459.728 162.041C460.184 162.041 460.539 161.914 460.792 161.66C461.053 161.406 461.183 161.048 461.183 160.586H462.648Z" fill="white"/>
</svg>
